<svg id="bold_1_" fill='#f2f2f2' enable-background="new 0 0 24 24" height="512" viewBox="0 0 24 24" width="512" xmlns="http://www.w3.org/2000/svg"><path d="m16 22h-2v-2h-4v2h-2c-.552 0-1 .448-1 1s.448 1 1 1h8c.553 0 1-.448 1-1s-.447-1-1-1z"/><path d="m22.25 4h-20.5c-.965 0-1.75.785-1.75 1.75v12.5c0 .965.785 1.75 1.75 1.75h20.5c.965 0 1.75-.785 1.75-1.75v-12.5c0-.965-.785-1.75-1.75-1.75zm-.25 14h-20v-12h20z"/><path d="m17 11.97c0 2.76-2.24 5-5 5-1.11 0-2.14-.36-2.96-.98l3.49-3.49c.14-.14.22-.33.22-.53v-4.94c2.41.36 4.25 2.44 4.25 4.94z"/><path d="m11.25 7.03v4.63l-3.27 3.27c-.62-.82-.98-1.85-.98-2.96 0-2.5 1.84-4.58 4.25-4.94z"/></svg>