<svg id="Layer_1" fill='#f2f2f2' enable-background="new 0 0 300 300" viewBox="0 0 300 300" xmlns="http://www.w3.org/2000/svg"><g><g><g><path d="m293.75 112.5h-79.31c-3.073-13.886-16.031-25-30.552-25h-8.888v-10.094c0-16.906-10.963-27.406-28.6-27.406h-133.9c-3.456 0-6.25 2.794-6.25 6.25s2.794 6.25 6.25 6.25h133.9c10.831 0 16.1 4.881 16.1 14.906v10.094h-41.112c-14.518 0-27.483 11.115-30.559 25h-84.579c-3.456 0-6.25 2.794-6.25 6.25v125c0 3.456 2.794 6.25 6.25 6.25h287.5c3.456 0 6.25-2.794 6.25-6.25v-125c0-3.456-2.794-6.25-6.25-6.25zm-172.35-12.5h62.5c8.056 0 14.731 5.856 17.45 12.5h-97.4c2.712-6.638 9.394-12.5 17.45-12.5zm166.1 137.5h-275v-112.5h83.888 112.5.131 78.481z"/><path d="m37.5 137.5h-12.5c-3.456 0-6.25 2.794-6.25 6.25s2.794 6.25 6.25 6.25h12.5c3.456 0 6.25-2.794 6.25-6.25s-2.794-6.25-6.25-6.25z"/><path d="m75 137.5h-12.5c-3.456 0-6.25 2.794-6.25 6.25s2.794 6.25 6.25 6.25h12.5c3.456 0 6.25-2.794 6.25-6.25s-2.794-6.25-6.25-6.25z"/><path d="m75 175h-12.5c-3.456 0-6.25 2.794-6.25 6.25s2.794 6.25 6.25 6.25h12.5c3.456 0 6.25-2.794 6.25-6.25s-2.794-6.25-6.25-6.25z"/><path d="m100 150h12.5c3.456 0 6.25-2.794 6.25-6.25s-2.794-6.25-6.25-6.25h-12.5c-3.456 0-6.25 2.794-6.25 6.25s2.794 6.25 6.25 6.25z"/><path d="m118.75 181.25c0-3.456-2.794-6.25-6.25-6.25h-12.5c-3.456 0-6.25 2.794-6.25 6.25s2.794 6.25 6.25 6.25h12.5c3.456 0 6.25-2.794 6.25-6.25z"/><path d="m137.5 187.5h12.5c3.456 0 6.25-2.794 6.25-6.25s-2.794-6.25-6.25-6.25h-12.5c-3.456 0-6.25 2.794-6.25 6.25s2.794 6.25 6.25 6.25z"/><path d="m175 187.5h12.5c3.456 0 6.25-2.794 6.25-6.25s-2.794-6.25-6.25-6.25h-12.5c-3.456 0-6.25 2.794-6.25 6.25s2.794 6.25 6.25 6.25z"/><path d="m137.5 150h12.5c3.456 0 6.25-2.794 6.25-6.25s-2.794-6.25-6.25-6.25h-12.5c-3.456 0-6.25 2.794-6.25 6.25s2.794 6.25 6.25 6.25z"/><path d="m37.5 175h-12.5c-3.456 0-6.25 2.794-6.25 6.25s2.794 6.25 6.25 6.25h12.5c3.456 0 6.25-2.794 6.25-6.25s-2.794-6.25-6.25-6.25z"/><path d="m37.5 212.5h-12.5c-3.456 0-6.25 2.794-6.25 6.25s2.794 6.25 6.25 6.25h12.5c3.456 0 6.25-2.794 6.25-6.25s-2.794-6.25-6.25-6.25z"/><path d="m262.5 150h12.5c3.456 0 6.25-2.794 6.25-6.25s-2.794-6.25-6.25-6.25h-12.5c-3.456 0-6.25 2.794-6.25 6.25s2.794 6.25 6.25 6.25z"/><path d="m262.5 187.5h12.5c3.456 0 6.25-2.794 6.25-6.25s-2.794-6.25-6.25-6.25h-12.5c-3.456 0-6.25 2.794-6.25 6.25s2.794 6.25 6.25 6.25z"/><path d="m225 150h12.5c3.456 0 6.25-2.794 6.25-6.25s-2.794-6.25-6.25-6.25h-12.5c-3.456 0-6.25 2.794-6.25 6.25s2.794 6.25 6.25 6.25z"/><path d="m225 187.5h12.5c3.456 0 6.25-2.794 6.25-6.25s-2.794-6.25-6.25-6.25h-12.5c-3.456 0-6.25 2.794-6.25 6.25s2.794 6.25 6.25 6.25z"/><path d="m175 150h12.5c3.456 0 6.25-2.794 6.25-6.25s-2.794-6.25-6.25-6.25h-12.5c-3.456 0-6.25 2.794-6.25 6.25s2.794 6.25 6.25 6.25z"/><path d="m262.5 225h12.5c3.456 0 6.25-2.794 6.25-6.25s-2.794-6.25-6.25-6.25h-12.5c-3.456 0-6.25 2.794-6.25 6.25s2.794 6.25 6.25 6.25z"/><path d="m75 212.5h-12.5c-3.456 0-6.25 2.794-6.25 6.25s2.794 6.25 6.25 6.25h12.5c3.456 0 6.25-2.794 6.25-6.25s-2.794-6.25-6.25-6.25z"/><path d="m106.25 218.75c0 3.456 2.794 6.25 6.25 6.25h100c3.456 0 6.25-2.794 6.25-6.25s-2.794-6.25-6.25-6.25h-100c-3.456 0-6.25 2.794-6.25 6.25z"/></g></g></g><g/><g/><g/><g/><g/><g/><g/><g/><g/><g/><g/><g/><g/><g/><g/></svg>